<?xml version="1.0" encoding="UTF-8"?>
<svg id="Layer_1" data-name="Layer 1" xmlns="http://www.w3.org/2000/svg" viewBox="0 0 43.93 36.95">
  <defs>
    <style>
      .cls-1 {
        stroke: #c58e4c;
        stroke-miterlimit: 10;
      }

      .cls-1, .cls-2 {
        fill: #fff;
      }

      .cls-2 {
        stroke-width: 0px;
      }
    </style>
  </defs>
  <rect class="cls-2" x="3.57" y="7.61" width="36.14" height="21.58"/>
  <path id="_NextNormal_" data-name="&amp;lt;NextNormal&amp;gt;" class="cls-1" d="m2.5.5h29.09c.47,0,.93.17,1.29.48l9.84,8.28c.45.38.71.94.71,1.53v15.2c0,.58-.25,1.14-.7,1.52l-9.76,8.38c-.36.31-.82.48-1.3.48l-29.17.08c-1.11,0-2.01-.89-2.01-2V2.5C.5,1.4,1.4.5,2.5.5Zm4,20.01h15.65s-2.28,5.37-2.28,5.37l17.56-7.41-17.56-7.41,2.29,5.4H6.5s0,4.05,0,4.05Z"/>
</svg>